<mxfile host="app.diagrams.net" agent="Mozilla/5.0 (Windows NT 10.0; Win64; x64) AppleWebKit/537.36 (KHTML, like Gecko) Chrome/131.0.0.0 Safari/537.36" version="25.0.3">
  <diagram name="Sayfa -1" id="LL-HR8nZ0Q3Mt9o68_RL">
    <mxGraphModel dx="1783" dy="492" grid="1" gridSize="10" guides="1" tooltips="1" connect="1" arrows="1" fold="1" page="1" pageScale="1" pageWidth="827" pageHeight="1169" math="0" shadow="0">
      <root>
        <mxCell id="0" />
        <mxCell id="1" parent="0" />
        <mxCell id="fRYDaaZ1SJku_LbExbUh-72" style="edgeStyle=orthogonalEdgeStyle;rounded=0;orthogonalLoop=1;jettySize=auto;html=1;exitX=1;exitY=0.75;exitDx=0;exitDy=0;" edge="1" parent="1" source="fRYDaaZ1SJku_LbExbUh-1">
          <mxGeometry relative="1" as="geometry">
            <mxPoint x="770" y="490" as="targetPoint" />
            <Array as="points">
              <mxPoint x="530" y="368" />
              <mxPoint x="530" y="490" />
              <mxPoint x="760" y="490" />
            </Array>
          </mxGeometry>
        </mxCell>
        <mxCell id="fRYDaaZ1SJku_LbExbUh-1" value="Sobel Execution Unit" style="whiteSpace=wrap;html=1;aspect=fixed;fillColor=#fff2cc;strokeColor=#d6b656;" vertex="1" parent="1">
          <mxGeometry x="328" y="240" width="170" height="170" as="geometry" />
        </mxCell>
        <mxCell id="fRYDaaZ1SJku_LbExbUh-2" value="Input Memory" style="whiteSpace=wrap;html=1;aspect=fixed;fillColor=#d5e8d4;strokeColor=#82b366;" vertex="1" parent="1">
          <mxGeometry x="110" y="240" width="170" height="170" as="geometry" />
        </mxCell>
        <mxCell id="fRYDaaZ1SJku_LbExbUh-53" style="edgeStyle=orthogonalEdgeStyle;rounded=0;orthogonalLoop=1;jettySize=auto;html=1;exitX=1;exitY=0.25;exitDx=0;exitDy=0;" edge="1" parent="1" source="fRYDaaZ1SJku_LbExbUh-3">
          <mxGeometry relative="1" as="geometry">
            <mxPoint x="760" y="282" as="targetPoint" />
          </mxGeometry>
        </mxCell>
        <mxCell id="fRYDaaZ1SJku_LbExbUh-3" value="Output Memory" style="whiteSpace=wrap;html=1;aspect=fixed;fillColor=#d5e8d4;strokeColor=#82b366;" vertex="1" parent="1">
          <mxGeometry x="550" y="240" width="170" height="170" as="geometry" />
        </mxCell>
        <mxCell id="fRYDaaZ1SJku_LbExbUh-4" value="" style="endArrow=classic;html=1;rounded=0;entryX=0;entryY=0.25;entryDx=0;entryDy=0;exitX=1;exitY=0.25;exitDx=0;exitDy=0;" edge="1" parent="1" source="fRYDaaZ1SJku_LbExbUh-2" target="fRYDaaZ1SJku_LbExbUh-1">
          <mxGeometry width="50" height="50" relative="1" as="geometry">
            <mxPoint x="280" y="300" as="sourcePoint" />
            <mxPoint x="330" y="250" as="targetPoint" />
          </mxGeometry>
        </mxCell>
        <mxCell id="fRYDaaZ1SJku_LbExbUh-6" value="i_pixel" style="text;html=1;align=center;verticalAlign=middle;whiteSpace=wrap;rounded=0;" vertex="1" parent="1">
          <mxGeometry x="220" y="269" width="60" height="30" as="geometry" />
        </mxCell>
        <mxCell id="fRYDaaZ1SJku_LbExbUh-7" value="" style="endArrow=classic;html=1;rounded=0;entryX=0;entryY=0.25;entryDx=0;entryDy=0;exitX=1;exitY=0.25;exitDx=0;exitDy=0;" edge="1" parent="1">
          <mxGeometry width="50" height="50" relative="1" as="geometry">
            <mxPoint x="62" y="283.66" as="sourcePoint" />
            <mxPoint x="110" y="283.66" as="targetPoint" />
          </mxGeometry>
        </mxCell>
        <mxCell id="fRYDaaZ1SJku_LbExbUh-8" value="" style="endArrow=classic;html=1;rounded=0;entryX=0;entryY=0.25;entryDx=0;entryDy=0;exitX=1;exitY=0.25;exitDx=0;exitDy=0;" edge="1" parent="1">
          <mxGeometry width="50" height="50" relative="1" as="geometry">
            <mxPoint x="62" y="310" as="sourcePoint" />
            <mxPoint x="110" y="310" as="targetPoint" />
          </mxGeometry>
        </mxCell>
        <mxCell id="fRYDaaZ1SJku_LbExbUh-10" value="wr_en_imem_i" style="text;html=1;align=center;verticalAlign=middle;whiteSpace=wrap;rounded=0;" vertex="1" parent="1">
          <mxGeometry x="-20" y="269" width="60" height="30" as="geometry" />
        </mxCell>
        <mxCell id="fRYDaaZ1SJku_LbExbUh-11" value="data_imem_i" style="text;html=1;align=center;verticalAlign=middle;whiteSpace=wrap;rounded=0;" vertex="1" parent="1">
          <mxGeometry x="-20" y="296" width="60" height="30" as="geometry" />
        </mxCell>
        <mxCell id="fRYDaaZ1SJku_LbExbUh-12" value="" style="endArrow=none;html=1;rounded=0;" edge="1" parent="1">
          <mxGeometry width="50" height="50" relative="1" as="geometry">
            <mxPoint x="80" y="316" as="sourcePoint" />
            <mxPoint x="90" y="306" as="targetPoint" />
          </mxGeometry>
        </mxCell>
        <mxCell id="fRYDaaZ1SJku_LbExbUh-13" value="" style="endArrow=none;html=1;rounded=0;" edge="1" parent="1">
          <mxGeometry width="50" height="50" relative="1" as="geometry">
            <mxPoint x="296" y="288" as="sourcePoint" />
            <mxPoint x="306" y="278" as="targetPoint" />
          </mxGeometry>
        </mxCell>
        <mxCell id="fRYDaaZ1SJku_LbExbUh-14" value="Mux" style="shadow=0;dashed=0;align=center;html=1;strokeWidth=1;shape=mxgraph.electrical.abstract.mux2;whiteSpace=wrap;rotation=90;fillColor=#f5f5f5;fontColor=#333333;strokeColor=#666666;" vertex="1" parent="1">
          <mxGeometry x="170" y="150" width="50" height="90" as="geometry" />
        </mxCell>
        <mxCell id="fRYDaaZ1SJku_LbExbUh-20" style="edgeStyle=orthogonalEdgeStyle;rounded=0;orthogonalLoop=1;jettySize=auto;html=1;entryX=-0.002;entryY=0.256;entryDx=0;entryDy=0;entryPerimeter=0;" edge="1" parent="1" source="fRYDaaZ1SJku_LbExbUh-14" target="fRYDaaZ1SJku_LbExbUh-2">
          <mxGeometry relative="1" as="geometry">
            <Array as="points">
              <mxPoint x="90" y="195" />
              <mxPoint x="90" y="284" />
            </Array>
          </mxGeometry>
        </mxCell>
        <mxCell id="fRYDaaZ1SJku_LbExbUh-21" style="edgeStyle=orthogonalEdgeStyle;rounded=0;orthogonalLoop=1;jettySize=auto;html=1;exitX=1;exitY=0.5;exitDx=0;exitDy=-5;exitPerimeter=0;entryX=0.526;entryY=-0.015;entryDx=0;entryDy=0;entryPerimeter=0;" edge="1" parent="1" source="fRYDaaZ1SJku_LbExbUh-14" target="fRYDaaZ1SJku_LbExbUh-2">
          <mxGeometry relative="1" as="geometry" />
        </mxCell>
        <mxCell id="fRYDaaZ1SJku_LbExbUh-22" value="i_mem_addr" style="text;html=1;align=center;verticalAlign=middle;whiteSpace=wrap;rounded=0;" vertex="1" parent="1">
          <mxGeometry x="170" y="240" width="60" height="30" as="geometry" />
        </mxCell>
        <mxCell id="fRYDaaZ1SJku_LbExbUh-23" value="" style="endArrow=classic;html=1;rounded=0;entryX=0;entryY=0.25;entryDx=0;entryDy=0;exitX=1;exitY=0.25;exitDx=0;exitDy=0;" edge="1" parent="1">
          <mxGeometry width="50" height="50" relative="1" as="geometry">
            <mxPoint x="62" y="390" as="sourcePoint" />
            <mxPoint x="110" y="390" as="targetPoint" />
          </mxGeometry>
        </mxCell>
        <mxCell id="fRYDaaZ1SJku_LbExbUh-24" value="" style="endArrow=classic;html=1;rounded=0;entryX=0;entryY=0.25;entryDx=0;entryDy=0;exitX=1;exitY=0.25;exitDx=0;exitDy=0;" edge="1" parent="1">
          <mxGeometry width="50" height="50" relative="1" as="geometry">
            <mxPoint x="62" y="370" as="sourcePoint" />
            <mxPoint x="110" y="370" as="targetPoint" />
          </mxGeometry>
        </mxCell>
        <mxCell id="fRYDaaZ1SJku_LbExbUh-25" value="rst_ni" style="text;html=1;align=center;verticalAlign=middle;whiteSpace=wrap;rounded=0;" vertex="1" parent="1">
          <mxGeometry x="9" y="355" width="60" height="30" as="geometry" />
        </mxCell>
        <mxCell id="fRYDaaZ1SJku_LbExbUh-28" value="" style="shape=partialRectangle;whiteSpace=wrap;html=1;bottom=0;right=0;fillColor=none;" vertex="1" parent="1">
          <mxGeometry x="-10" y="385" width="30" height="15" as="geometry" />
        </mxCell>
        <mxCell id="fRYDaaZ1SJku_LbExbUh-29" value="" style="shape=partialRectangle;whiteSpace=wrap;html=1;bottom=1;right=1;left=1;top=0;fillColor=none;routingCenterX=-0.5;" vertex="1" parent="1">
          <mxGeometry x="20" y="385" width="30" height="15" as="geometry" />
        </mxCell>
        <mxCell id="fRYDaaZ1SJku_LbExbUh-30" value="i_pixel_addr" style="text;html=1;align=center;verticalAlign=middle;whiteSpace=wrap;rounded=0;" vertex="1" parent="1">
          <mxGeometry x="304" y="239" width="60" height="30" as="geometry" />
        </mxCell>
        <mxCell id="fRYDaaZ1SJku_LbExbUh-31" value="" style="endArrow=classic;html=1;rounded=0;entryX=0;entryY=0.20555555555555555;entryDx=0;entryDy=3;exitX=0.5;exitY=0;exitDx=0;exitDy=0;entryPerimeter=0;" edge="1" parent="1" source="fRYDaaZ1SJku_LbExbUh-30" target="fRYDaaZ1SJku_LbExbUh-14">
          <mxGeometry width="50" height="50" relative="1" as="geometry">
            <mxPoint x="350" y="210" as="sourcePoint" />
            <mxPoint x="398" y="210" as="targetPoint" />
            <Array as="points">
              <mxPoint x="334" y="140" />
              <mxPoint x="290" y="140" />
              <mxPoint x="220" y="140" />
            </Array>
          </mxGeometry>
        </mxCell>
        <mxCell id="fRYDaaZ1SJku_LbExbUh-32" value="addr_imem_i" style="text;html=1;align=center;verticalAlign=middle;whiteSpace=wrap;rounded=0;" vertex="1" parent="1">
          <mxGeometry x="140" y="140" width="60" height="30" as="geometry" />
        </mxCell>
        <mxCell id="fRYDaaZ1SJku_LbExbUh-33" value="Mux" style="shadow=0;dashed=0;align=center;html=1;strokeWidth=1;shape=mxgraph.electrical.abstract.mux2;whiteSpace=wrap;rotation=90;fillColor=#f5f5f5;fontColor=#333333;strokeColor=#666666;" vertex="1" parent="1">
          <mxGeometry x="566" y="150" width="50" height="90" as="geometry" />
        </mxCell>
        <mxCell id="fRYDaaZ1SJku_LbExbUh-34" value="" style="endArrow=classic;html=1;rounded=0;entryX=0.589;entryY=1.022;entryDx=0;entryDy=0;exitX=1;exitY=0.25;exitDx=0;exitDy=0;entryPerimeter=0;" edge="1" parent="1">
          <mxGeometry width="50" height="50" relative="1" as="geometry">
            <mxPoint x="642" y="452" as="sourcePoint" />
            <mxPoint x="710.1300000000001" y="410.74" as="targetPoint" />
            <Array as="points">
              <mxPoint x="710" y="452" />
            </Array>
          </mxGeometry>
        </mxCell>
        <mxCell id="fRYDaaZ1SJku_LbExbUh-35" value="" style="endArrow=classic;html=1;rounded=0;entryX=0.395;entryY=1.018;entryDx=0;entryDy=0;exitX=1;exitY=0.25;exitDx=0;exitDy=0;entryPerimeter=0;" edge="1" parent="1">
          <mxGeometry width="50" height="50" relative="1" as="geometry">
            <mxPoint x="642" y="432" as="sourcePoint" />
            <mxPoint x="677.1499999999996" y="410.06000000000006" as="targetPoint" />
            <Array as="points">
              <mxPoint x="677" y="432" />
            </Array>
          </mxGeometry>
        </mxCell>
        <mxCell id="fRYDaaZ1SJku_LbExbUh-36" value="rst_ni" style="text;html=1;align=center;verticalAlign=middle;whiteSpace=wrap;rounded=0;" vertex="1" parent="1">
          <mxGeometry x="589" y="417" width="60" height="30" as="geometry" />
        </mxCell>
        <mxCell id="fRYDaaZ1SJku_LbExbUh-37" value="" style="shape=partialRectangle;whiteSpace=wrap;html=1;bottom=0;right=0;fillColor=none;" vertex="1" parent="1">
          <mxGeometry x="570" y="447" width="30" height="15" as="geometry" />
        </mxCell>
        <mxCell id="fRYDaaZ1SJku_LbExbUh-38" value="" style="shape=partialRectangle;whiteSpace=wrap;html=1;bottom=1;right=1;left=1;top=0;fillColor=none;routingCenterX=-0.5;" vertex="1" parent="1">
          <mxGeometry x="600" y="447" width="30" height="15" as="geometry" />
        </mxCell>
        <mxCell id="fRYDaaZ1SJku_LbExbUh-39" value="" style="endArrow=classic;html=1;rounded=0;entryX=0.589;entryY=1.022;entryDx=0;entryDy=0;exitX=1;exitY=0.25;exitDx=0;exitDy=0;entryPerimeter=0;" edge="1" parent="1">
          <mxGeometry width="50" height="50" relative="1" as="geometry">
            <mxPoint x="415" y="452" as="sourcePoint" />
            <mxPoint x="483" y="411" as="targetPoint" />
            <Array as="points">
              <mxPoint x="483" y="452" />
            </Array>
          </mxGeometry>
        </mxCell>
        <mxCell id="fRYDaaZ1SJku_LbExbUh-40" value="" style="endArrow=classic;html=1;rounded=0;entryX=0.395;entryY=1.018;entryDx=0;entryDy=0;exitX=1;exitY=0.25;exitDx=0;exitDy=0;entryPerimeter=0;" edge="1" parent="1">
          <mxGeometry width="50" height="50" relative="1" as="geometry">
            <mxPoint x="415" y="432" as="sourcePoint" />
            <mxPoint x="450" y="410" as="targetPoint" />
            <Array as="points">
              <mxPoint x="450" y="432" />
            </Array>
          </mxGeometry>
        </mxCell>
        <mxCell id="fRYDaaZ1SJku_LbExbUh-41" value="rst_ni" style="text;html=1;align=center;verticalAlign=middle;whiteSpace=wrap;rounded=0;" vertex="1" parent="1">
          <mxGeometry x="362" y="417" width="60" height="30" as="geometry" />
        </mxCell>
        <mxCell id="fRYDaaZ1SJku_LbExbUh-42" value="" style="shape=partialRectangle;whiteSpace=wrap;html=1;bottom=0;right=0;fillColor=none;" vertex="1" parent="1">
          <mxGeometry x="343" y="447" width="30" height="15" as="geometry" />
        </mxCell>
        <mxCell id="fRYDaaZ1SJku_LbExbUh-43" value="" style="shape=partialRectangle;whiteSpace=wrap;html=1;bottom=1;right=1;left=1;top=0;fillColor=none;routingCenterX=-0.5;" vertex="1" parent="1">
          <mxGeometry x="373" y="447" width="30" height="15" as="geometry" />
        </mxCell>
        <mxCell id="fRYDaaZ1SJku_LbExbUh-44" value="addr_omem_i" style="text;html=1;align=center;verticalAlign=middle;whiteSpace=wrap;rounded=0;" vertex="1" parent="1">
          <mxGeometry x="526" y="140" width="60" height="30" as="geometry" />
        </mxCell>
        <mxCell id="fRYDaaZ1SJku_LbExbUh-45" value="" style="endArrow=classic;html=1;rounded=0;entryX=0;entryY=0.20555555555555555;entryDx=0;entryDy=3;entryPerimeter=0;" edge="1" parent="1" target="fRYDaaZ1SJku_LbExbUh-33">
          <mxGeometry width="50" height="50" relative="1" as="geometry">
            <mxPoint x="450" y="240" as="sourcePoint" />
            <mxPoint x="500" y="190" as="targetPoint" />
            <Array as="points">
              <mxPoint x="450" y="140" />
              <mxPoint x="615" y="140" />
            </Array>
          </mxGeometry>
        </mxCell>
        <mxCell id="fRYDaaZ1SJku_LbExbUh-46" style="edgeStyle=orthogonalEdgeStyle;rounded=0;orthogonalLoop=1;jettySize=auto;html=1;exitX=1;exitY=0.5;exitDx=0;exitDy=-5;exitPerimeter=0;entryX=0.472;entryY=-0.004;entryDx=0;entryDy=0;entryPerimeter=0;" edge="1" parent="1" source="fRYDaaZ1SJku_LbExbUh-33">
          <mxGeometry relative="1" as="geometry">
            <mxPoint x="596.2400000000002" y="239.32000000000005" as="targetPoint" />
          </mxGeometry>
        </mxCell>
        <mxCell id="fRYDaaZ1SJku_LbExbUh-47" value="o_pixel_addr" style="text;html=1;align=center;verticalAlign=middle;whiteSpace=wrap;rounded=0;" vertex="1" parent="1">
          <mxGeometry x="430" y="239" width="60" height="30" as="geometry" />
        </mxCell>
        <mxCell id="fRYDaaZ1SJku_LbExbUh-48" value="rd_en_omem_i" style="text;html=1;align=center;verticalAlign=middle;whiteSpace=wrap;rounded=0;" vertex="1" parent="1">
          <mxGeometry x="449.87" y="177" width="60" height="30" as="geometry" />
        </mxCell>
        <mxCell id="fRYDaaZ1SJku_LbExbUh-49" value="" style="endArrow=classic;html=1;rounded=0;exitX=1.001;exitY=0.256;exitDx=0;exitDy=0;exitPerimeter=0;" edge="1" parent="1" source="fRYDaaZ1SJku_LbExbUh-1">
          <mxGeometry width="50" height="50" relative="1" as="geometry">
            <mxPoint x="500" y="284" as="sourcePoint" />
            <mxPoint x="550" y="283" as="targetPoint" />
          </mxGeometry>
        </mxCell>
        <mxCell id="fRYDaaZ1SJku_LbExbUh-50" value="" style="endArrow=none;html=1;rounded=0;" edge="1" parent="1">
          <mxGeometry width="50" height="50" relative="1" as="geometry">
            <mxPoint x="520" y="289" as="sourcePoint" />
            <mxPoint x="530" y="279" as="targetPoint" />
          </mxGeometry>
        </mxCell>
        <mxCell id="fRYDaaZ1SJku_LbExbUh-51" value="o_pixel" style="text;html=1;align=center;verticalAlign=middle;whiteSpace=wrap;rounded=0;" vertex="1" parent="1">
          <mxGeometry x="438" y="269" width="60" height="30" as="geometry" />
        </mxCell>
        <mxCell id="fRYDaaZ1SJku_LbExbUh-52" value="o_mem_addr" style="text;html=1;align=center;verticalAlign=middle;whiteSpace=wrap;rounded=0;" vertex="1" parent="1">
          <mxGeometry x="566" y="239" width="60" height="30" as="geometry" />
        </mxCell>
        <mxCell id="fRYDaaZ1SJku_LbExbUh-54" value="" style="endArrow=none;html=1;rounded=0;" edge="1" parent="1">
          <mxGeometry width="50" height="50" relative="1" as="geometry">
            <mxPoint x="329" y="217" as="sourcePoint" />
            <mxPoint x="339" y="207" as="targetPoint" />
          </mxGeometry>
        </mxCell>
        <mxCell id="fRYDaaZ1SJku_LbExbUh-55" value="" style="endArrow=none;html=1;rounded=0;" edge="1" parent="1">
          <mxGeometry width="50" height="50" relative="1" as="geometry">
            <mxPoint x="445" y="219" as="sourcePoint" />
            <mxPoint x="455" y="209" as="targetPoint" />
          </mxGeometry>
        </mxCell>
        <mxCell id="fRYDaaZ1SJku_LbExbUh-56" value="" style="endArrow=none;html=1;rounded=0;" edge="1" parent="1">
          <mxGeometry width="50" height="50" relative="1" as="geometry">
            <mxPoint x="591" y="226" as="sourcePoint" />
            <mxPoint x="601" y="216" as="targetPoint" />
          </mxGeometry>
        </mxCell>
        <mxCell id="fRYDaaZ1SJku_LbExbUh-57" value="" style="endArrow=none;html=1;rounded=0;" edge="1" parent="1">
          <mxGeometry width="50" height="50" relative="1" as="geometry">
            <mxPoint x="195" y="225" as="sourcePoint" />
            <mxPoint x="205" y="215" as="targetPoint" />
          </mxGeometry>
        </mxCell>
        <mxCell id="fRYDaaZ1SJku_LbExbUh-58" value="" style="endArrow=none;html=1;rounded=0;" edge="1" parent="1">
          <mxGeometry width="50" height="50" relative="1" as="geometry">
            <mxPoint x="732" y="288" as="sourcePoint" />
            <mxPoint x="742" y="278" as="targetPoint" />
          </mxGeometry>
        </mxCell>
        <mxCell id="fRYDaaZ1SJku_LbExbUh-60" value="data_omem_o" style="text;html=1;align=center;verticalAlign=middle;whiteSpace=wrap;rounded=0;" vertex="1" parent="1">
          <mxGeometry x="780" y="266" width="60" height="30" as="geometry" />
        </mxCell>
        <mxCell id="fRYDaaZ1SJku_LbExbUh-61" value="Mux" style="shadow=0;dashed=0;align=center;html=1;strokeWidth=1;shape=mxgraph.electrical.abstract.mux2;whiteSpace=wrap;rotation=90;fillColor=#f5f5f5;fontColor=#333333;strokeColor=#666666;" vertex="1" parent="1">
          <mxGeometry x="680" y="150" width="50" height="90" as="geometry" />
        </mxCell>
        <mxCell id="fRYDaaZ1SJku_LbExbUh-63" style="edgeStyle=orthogonalEdgeStyle;rounded=0;orthogonalLoop=1;jettySize=auto;html=1;exitX=1;exitY=0.5;exitDx=0;exitDy=-5;exitPerimeter=0;entryX=0.94;entryY=-0.005;entryDx=0;entryDy=0;entryPerimeter=0;" edge="1" parent="1" source="fRYDaaZ1SJku_LbExbUh-61" target="fRYDaaZ1SJku_LbExbUh-3">
          <mxGeometry relative="1" as="geometry" />
        </mxCell>
        <mxCell id="fRYDaaZ1SJku_LbExbUh-65" style="edgeStyle=orthogonalEdgeStyle;rounded=0;orthogonalLoop=1;jettySize=auto;html=1;exitX=0.3;exitY=1;exitDx=10;exitDy=0;exitPerimeter=0;entryX=0.3;entryY=1;entryDx=10;entryDy=0;entryPerimeter=0;" edge="1" parent="1" source="fRYDaaZ1SJku_LbExbUh-33" target="fRYDaaZ1SJku_LbExbUh-61">
          <mxGeometry relative="1" as="geometry">
            <Array as="points">
              <mxPoint x="526" y="195" />
              <mxPoint x="526" y="110" />
              <mxPoint x="650" y="110" />
              <mxPoint x="650" y="195" />
            </Array>
          </mxGeometry>
        </mxCell>
        <mxCell id="fRYDaaZ1SJku_LbExbUh-66" value="o_mem_wr_en" style="text;html=1;align=center;verticalAlign=middle;whiteSpace=wrap;rounded=0;" vertex="1" parent="1">
          <mxGeometry x="680" y="239" width="60" height="30" as="geometry" />
        </mxCell>
        <mxCell id="fRYDaaZ1SJku_LbExbUh-67" value="0" style="text;html=1;align=center;verticalAlign=middle;whiteSpace=wrap;rounded=0;" vertex="1" parent="1">
          <mxGeometry x="680" y="140" width="20" height="30" as="geometry" />
        </mxCell>
        <mxCell id="fRYDaaZ1SJku_LbExbUh-68" value="o_wr_en" style="text;html=1;align=center;verticalAlign=middle;whiteSpace=wrap;rounded=0;" vertex="1" parent="1">
          <mxGeometry x="383" y="232" width="20" height="30" as="geometry" />
        </mxCell>
        <mxCell id="fRYDaaZ1SJku_LbExbUh-69" style="edgeStyle=orthogonalEdgeStyle;rounded=0;orthogonalLoop=1;jettySize=auto;html=1;entryX=0;entryY=0.20555555555555555;entryDx=0;entryDy=3;entryPerimeter=0;" edge="1" parent="1" source="fRYDaaZ1SJku_LbExbUh-1" target="fRYDaaZ1SJku_LbExbUh-61">
          <mxGeometry relative="1" as="geometry">
            <Array as="points">
              <mxPoint x="390" y="80" />
              <mxPoint x="729" y="80" />
            </Array>
          </mxGeometry>
        </mxCell>
        <mxCell id="fRYDaaZ1SJku_LbExbUh-70" value="" style="endArrow=classic;html=1;rounded=0;entryX=0.188;entryY=1;entryDx=0;entryDy=0;exitX=1.027;exitY=0.416;exitDx=0;exitDy=0;entryPerimeter=0;exitPerimeter=0;" edge="1" parent="1" source="fRYDaaZ1SJku_LbExbUh-71" target="fRYDaaZ1SJku_LbExbUh-1">
          <mxGeometry width="50" height="50" relative="1" as="geometry">
            <mxPoint x="290" y="431.5" as="sourcePoint" />
            <mxPoint x="338" y="432.5" as="targetPoint" />
            <Array as="points">
              <mxPoint x="360" y="430" />
            </Array>
          </mxGeometry>
        </mxCell>
        <mxCell id="fRYDaaZ1SJku_LbExbUh-71" value="start_i" style="text;html=1;align=center;verticalAlign=middle;whiteSpace=wrap;rounded=0;" vertex="1" parent="1">
          <mxGeometry x="243" y="418" width="60" height="30" as="geometry" />
        </mxCell>
        <mxCell id="fRYDaaZ1SJku_LbExbUh-73" value="finish_o" style="text;html=1;align=center;verticalAlign=middle;whiteSpace=wrap;rounded=0;" vertex="1" parent="1">
          <mxGeometry x="767" y="474" width="60" height="30" as="geometry" />
        </mxCell>
      </root>
    </mxGraphModel>
  </diagram>
</mxfile>
